<svg xmlns="http://www.w3.org/2000/svg" version="1.1" xmlns:xlink="http://www.w3.org/1999/xlink" xmlns:svgjs="http://svgjs.dev/svgjs" width="1500" height="935" viewBox="0 0 1500 935"><g transform="matrix(1,0,0,1,-0.9090909090909918,0.3785425101214628)"><svg viewBox="0 0 396 247" data-background-color="#000000" preserveAspectRatio="xMidYMid meet" height="935" width="1500" xmlns="http://www.w3.org/2000/svg" xmlns:xlink="http://www.w3.org/1999/xlink"><g id="tight-bounds" transform="matrix(1,0,0,1,0.2400000000000091,-0.09999999999999432)"><svg viewBox="0 0 395.52 247.2" height="247.2" width="395.52"><rect width="395.52" height="247.2" fill="url(#c1d62825-272f-4876-9a85-7351f22719c0)" mask="url(#4531afce-79fa-411a-ae77-e6175fa79afe)" data-fill-palette-color="tertiary"></rect><g><svg></svg></g><g><svg viewBox="0 0 395.52 247.2" height="247.2" width="395.52"><g transform="matrix(1,0,0,1,142.25129857819906,47.215199999999996)"><svg viewBox="0 0 111.01740284360189 152.7696" height="152.7696" width="111.01740284360189"><g><svg viewBox="0 0 111.01740284360189 152.7696" height="152.7696" width="111.01740284360189"><g><svg viewBox="0 0 111.01740284360189 152.7696" height="152.7696" width="111.01740284360189"><g><svg viewBox="0 0 111.01740284360189 152.7696" height="152.7696" width="111.01740284360189"><g id="textblocktransform"><svg viewBox="0 0 111.01740284360189 152.7696" height="152.7696" width="111.01740284360189" id="textblock"><g><svg viewBox="0 0 111.01740284360189 152.7696" height="152.7696" width="111.01740284360189"><g transform="matrix(1,0,0,1,0,0)"><svg width="111.01740284360189" viewBox="3 -32.1 23 31.650000000000002" height="152.7696" data-palette-color="url(#75fb6225-33d9-4078-8f07-27b29c1f4b52)"></svg></g></svg></g></svg></g></svg></g></svg></g></svg></g></svg></g><g><path d="M179.109 0c30.402 0 58.24 10.976 79.768 29.183l-11.147 0c-19.26-14.022-42.974-22.294-68.621-22.295-25.647 0-49.361 8.272-68.621 22.295l-11.148 0c21.528-18.206 49.366-29.183 79.769-29.183zM179.109 247.2c-30.402 0-58.24-10.976-79.769-29.183l11.148 0c19.26 14.022 42.974 22.294 68.621 22.295 25.647 0 49.361-8.272 68.621-22.295l11.147 0c-21.528 18.206-49.366 29.183-79.768 29.183z" fill="url(#c1d62825-272f-4876-9a85-7351f22719c0)" stroke="transparent" data-fill-palette-color="tertiary"></path></g></svg></g><defs></defs><mask id="d1ea4770-9fac-4b7b-abd6-2734e4ab40ac"><g id="SvgjsG1267"><svg viewBox="0 0 395.52 247.2" height="247.2" width="395.52"><g><svg></svg></g><g><svg viewBox="0 0 395.52 247.2" height="247.2" width="395.52"><g transform="matrix(1,0,0,1,142.25129857819906,47.215199999999996)"><svg viewBox="0 0 111.01740284360189 152.7696" height="152.7696" width="111.01740284360189"><g><svg viewBox="0 0 111.01740284360189 152.7696" height="152.7696" width="111.01740284360189"><g><svg viewBox="0 0 111.01740284360189 152.7696" height="152.7696" width="111.01740284360189"><g><svg viewBox="0 0 111.01740284360189 152.7696" height="152.7696" width="111.01740284360189"><g id="SvgjsG1266"><svg viewBox="0 0 111.01740284360189 152.7696" height="152.7696" width="111.01740284360189" id="SvgjsSvg1265"><g><svg viewBox="0 0 111.01740284360189 152.7696" height="152.7696" width="111.01740284360189"><g transform="matrix(1,0,0,1,0,0)"><svg width="111.01740284360189" viewBox="3 -32.1 23 31.650000000000002" height="152.7696" data-palette-color="url(#75fb6225-33d9-4078-8f07-27b29c1f4b52)"><path d="M11-7.25L26-7.25 26-0.45 3-0.45 3-32.1 11-32.1 11-7.25Z" opacity="1" transform="matrix(1,0,0,1,0,0)" fill="white" class="wordmark-text-0" id="SvgjsPath1264"></path></svg></g></svg></g></svg></g></svg></g></svg></g></svg></g></svg></g><g><path d="M179.109 0c30.402 0 58.24 10.976 79.768 29.183l-11.147 0c-19.26-14.022-42.974-22.294-68.621-22.295-25.647 0-49.361 8.272-68.621 22.295l-11.148 0c21.528-18.206 49.366-29.183 79.769-29.183zM179.109 247.2c-30.402 0-58.24-10.976-79.769-29.183l11.148 0c19.26 14.022 42.974 22.294 68.621 22.295 25.647 0 49.361-8.272 68.621-22.295l11.147 0c-21.528 18.206-49.366 29.183-79.768 29.183z" fill="black" stroke="transparent"></path></g></svg></g><defs><mask></mask></defs></svg><rect width="395.52" height="247.2" fill="black" stroke="none" visibility="hidden"></rect></g></mask><linearGradient x1="0" x2="1" y1="0.578" y2="0.595" id="75fb6225-33d9-4078-8f07-27b29c1f4b52"><stop stop-color="#6ee2f5" offset="0"></stop><stop stop-color="#6454f0" offset="1"></stop></linearGradient><rect width="395.52" height="247.2" fill="url(#75fb6225-33d9-4078-8f07-27b29c1f4b52)" mask="url(#d1ea4770-9fac-4b7b-abd6-2734e4ab40ac)" data-fill-palette-color="primary"></rect><mask id="4531afce-79fa-411a-ae77-e6175fa79afe"><g id="SvgjsG1290"><svg viewBox="0 0 395.52 247.2" height="247.2" width="395.52"><g><svg></svg></g><g><svg viewBox="0 0 395.52 247.2" height="247.2" width="395.52"><g transform="matrix(1,0,0,1,142.25129857819906,47.215199999999996)"><svg viewBox="0 0 111.01740284360189 152.7696" height="152.7696" width="111.01740284360189"><g><svg viewBox="0 0 111.01740284360189 152.7696" height="152.7696" width="111.01740284360189"><g><svg viewBox="0 0 111.01740284360189 152.7696" height="152.7696" width="111.01740284360189"><g><svg viewBox="0 0 111.01740284360189 152.7696" height="152.7696" width="111.01740284360189"><g id="SvgjsG1289"><svg viewBox="0 0 111.01740284360189 152.7696" height="152.7696" width="111.01740284360189" id="SvgjsSvg1288"><g><svg viewBox="0 0 111.01740284360189 152.7696" height="152.7696" width="111.01740284360189"><g transform="matrix(1,0,0,1,0,0)"><svg width="111.01740284360189" viewBox="3 -32.1 23 31.650000000000002" height="152.7696" data-palette-color="url(#75fb6225-33d9-4078-8f07-27b29c1f4b52)"></svg></g></svg></g></svg></g></svg></g></svg></g></svg></g></svg></g><g><path d="M179.109 0c30.402 0 58.24 10.976 79.768 29.183l-11.147 0c-19.26-14.022-42.974-22.294-68.621-22.295-25.647 0-49.361 8.272-68.621 22.295l-11.148 0c21.528-18.206 49.366-29.183 79.769-29.183zM179.109 247.2c-30.402 0-58.24-10.976-79.769-29.183l11.148 0c19.26 14.022 42.974 22.294 68.621 22.295 25.647 0 49.361-8.272 68.621-22.295l11.147 0c-21.528 18.206-49.366 29.183-79.768 29.183z" fill="white" stroke="transparent"></path></g></svg></g><defs><mask></mask></defs><mask><g id="SvgjsG1287"><svg viewBox="0 0 395.52 247.2" height="247.2" width="395.52"><g><svg></svg></g><g><svg viewBox="0 0 395.52 247.2" height="247.2" width="395.52"><g transform="matrix(1,0,0,1,142.25129857819906,47.215199999999996)"><svg viewBox="0 0 111.01740284360189 152.7696" height="152.7696" width="111.01740284360189"><g><svg viewBox="0 0 111.01740284360189 152.7696" height="152.7696" width="111.01740284360189"><g><svg viewBox="0 0 111.01740284360189 152.7696" height="152.7696" width="111.01740284360189"><g><svg viewBox="0 0 111.01740284360189 152.7696" height="152.7696" width="111.01740284360189"><g id="SvgjsG1286"><svg viewBox="0 0 111.01740284360189 152.7696" height="152.7696" width="111.01740284360189" id="SvgjsSvg1285"><g><svg viewBox="0 0 111.01740284360189 152.7696" height="152.7696" width="111.01740284360189"><g transform="matrix(1,0,0,1,0,0)"><svg width="111.01740284360189" viewBox="3 -32.1 23 31.650000000000002" height="152.7696" data-palette-color="url(#75fb6225-33d9-4078-8f07-27b29c1f4b52)"><path d="M11-7.25L26-7.25 26-0.45 3-0.45 3-32.1 11-32.1 11-7.25Z" opacity="1" transform="matrix(1,0,0,1,0,0)" fill="black" class="wordmark-text-0" id="SvgjsPath1284"></path></svg></g></svg></g></svg></g></svg></g></svg></g></svg></g></svg></g><g><path d="M179.109 0c30.402 0 58.24 10.976 79.768 29.183l-11.147 0c-19.26-14.022-42.974-22.294-68.621-22.295-25.647 0-49.361 8.272-68.621 22.295l-11.148 0c21.528-18.206 49.366-29.183 79.769-29.183zM179.109 247.2c-30.402 0-58.24-10.976-79.769-29.183l11.148 0c19.26 14.022 42.974 22.294 68.621 22.295 25.647 0 49.361-8.272 68.621-22.295l11.147 0c-21.528 18.206-49.366 29.183-79.768 29.183z" fill="black" stroke="transparent"></path></g></svg></g><defs><mask></mask></defs></svg><rect width="395.52" height="247.2" fill="black" stroke="none" visibility="hidden"></rect></g></mask></svg><rect width="395.52" height="247.2" fill="black" stroke="none" visibility="hidden"></rect></g></mask><linearGradient x1="0" x2="1" y1="0.578" y2="0.595" id="c1d62825-272f-4876-9a85-7351f22719c0"><stop stop-color="#6ee2f5" offset="0"></stop><stop stop-color="#6454f0" offset="1"></stop></linearGradient></svg><rect width="395.52" height="247.2" fill="none" stroke="none" visibility="hidden"></rect></g></svg></g></svg>